<?xml version="1.0" standalone="no"?>
<svg xmlns="http://www.w3.org/2000/svg" viewBox="0 0 188.509 29" width="188.509" height="29"><g fill="#8b26de" color="#8b26de" transform="translate(0, 0) scale(0.5576924)"><svg width="52.0" height="52.0" x="0.0" y="0.0" viewBox="0 0 52 52"><path fill="currentColor" fill-rule="evenodd" d="M21.009 26.075l-6.747 6.747a3.95 3.95 0 0 1-2.808 1.164 3.953 3.953 0 0 1-2.81-1.164L1.9 26.075a.105.105 0 0 1 0-.15l6.746-6.746a3.95 3.95 0 0 1 2.81-1.163c1.059 0 2.057.413 2.807 1.163l6.747 6.746c.008.01.03.03.03.075a.1.1 0 0 1-.03.075m4.99 3.019c.45 0 .899.152 1.264.456l.133.122 6.746 6.746a5.84 5.84 0 0 1 .176 8.075l-.176.183-6.746 6.746a1.968 1.968 0 0 1-2.659.122l-.132-.122-6.746-6.746a5.839 5.839 0 0 1-.176-8.075l.176-.183 6.746-6.746c.384-.386.89-.578 1.395-.578zm0 1.867a.1.1 0 0 0-.06.02l-.014.011-6.745 6.746a3.939 3.939 0 0 0-1.164 2.809 3.94 3.94 0 0 0 1.008 2.645l.156.164 6.745 6.746c.01.009.03.032.075.032.029 0 .05-.01.062-.02l.013-.012 6.746-6.746a3.947 3.947 0 0 0 1.165-2.81c0-.985-.357-1.915-1.008-2.644l-.156-.164-6.747-6.746a.102.102 0 0 0-.075-.03zM11.455 16.148c1.4 0 2.802.502 3.911 1.504l.218.207 6.746 6.746c.73.73.77 1.89.115 2.665l-.115.126-6.746 6.747a5.826 5.826 0 0 1-4.129 1.71 5.825 5.825 0 0 1-3.912-1.503l-.218-.207-6.746-6.747c-.73-.73-.769-1.89-.115-2.666l.115-.125 6.746-6.746a5.823 5.823 0 0 1 4.13-1.71zm29.093 0c1.401 0 2.802.502 3.911 1.504l.218.207 6.746 6.746c.73.73.768 1.89.115 2.665l-.115.126-6.746 6.747a5.826 5.826 0 0 1-4.129 1.71 5.825 5.825 0 0 1-3.911-1.503l-.218-.207-6.746-6.747a1.974 1.974 0 0 1-.115-2.666l.115-.125 6.746-6.746a5.823 5.823 0 0 1 4.13-1.71zm0 1.868c-.985 0-1.916.356-2.644 1.008l-.164.155-6.747 6.746a.108.108 0 0 0-.023.116l.023.034 6.747 6.747a3.95 3.95 0 0 0 2.808 1.164c.985 0 1.916-.358 2.644-1.008l.164-.156 6.747-6.747c.008-.008.03-.03.03-.075a.1.1 0 0 0-.018-.061l-.012-.014-6.747-6.746a3.944 3.944 0 0 0-2.808-1.163zM26 0c.505 0 1.01.192 1.396.578l6.746 6.746a5.84 5.84 0 0 1 0 8.26l-6.746 6.744c-.385.386-.89.578-1.396.578-.505 0-1.01-.192-1.395-.578l-6.747-6.745a5.842 5.842 0 0 1 0-8.26L24.605.579C24.99.192 25.495 0 26 0zm0 1.867c-.044 0-.066.024-.074.031L19.18 8.644a3.978 3.978 0 0 0 0 5.62l6.746 6.744c.007.01.03.031.074.031a.097.097 0 0 0 .076-.03l6.745-6.746a3.976 3.976 0 0 0 0-5.619l-6.745-6.746c-.01-.007-.032-.03-.076-.03z"></path></svg></g><line x1="41" y1="2%" x2="41" y2="98%" stroke="#ffffff" stroke-linecap="round"></line><path fill="#ffffff" fill-rule="nonzero" d="M12.14 10.05L12.14 10.05Q12.02 11.53 11.67 13.02Q11.32 14.51 10.79 15.89Q10.27 17.27 9.56 18.48Q8.86 19.69 8.00 20.58Q7.15 21.47 6.18 21.98Q5.20 22.50 4.15 22.50L4.15 22.50Q3.94 22.50 3.50 22.42Q3.07 22.34 2.58 22.04Q2.09 21.75 1.58 21.19Q1.08 20.63 0.70 19.68Q0.33 18.73 0.16 17.32Q0 15.91 0.16 13.92L0.16 13.92Q0.45 10.78 1.32 8.21Q2.20 5.65 3.34 3.82Q4.48 1.99 5.70 1.00Q6.91 0 7.85 0L7.85 0Q8.23 0 8.47 0.15Q8.72 0.30 8.86 0.54L8.86 0.54Q9.02 0.49 9.23 0.47Q9.45 0.45 9.70 0.45L9.70 0.45Q10.38 0.45 10.91 1.15Q11.44 1.85 11.78 3.12Q12.12 4.38 12.22 6.15Q12.33 7.92 12.14 10.05ZM4.22 21.14L4.22 21.14Q5.13 21.14 6.09 20.20Q7.05 19.27 7.88 17.66Q8.70 16.05 9.28 13.92Q9.87 11.79 10.08 9.40L10.08 9.40Q10.13 8.77 10.15 7.95Q10.17 7.13 10.15 6.28Q10.13 5.44 10.04 4.61Q9.96 3.77 9.82 3.14Q9.68 2.51 9.47 2.11Q9.26 1.71 8.98 1.71L8.98 1.71Q8.67 1.73 8.37 1.90L8.37 1.90Q8.11 2.04 7.77 2.36Q7.43 2.67 7.10 3.23L7.10 3.23Q7.03 3.19 7.00 3.09Q6.96 3 6.91 2.91L6.91 2.91Q6.87 2.81 6.84 2.70L6.84 2.70Q6.80 2.63 6.80 2.52Q6.80 2.41 6.77 2.27L6.77 2.27Q6.30 2.79 5.66 3.74Q5.02 4.69 4.37 6.09Q3.73 7.50 3.20 9.41Q2.67 11.32 2.46 13.76L2.46 13.76Q2.27 15.91 2.37 17.34Q2.46 18.77 2.73 19.62Q3 20.46 3.40 20.80Q3.80 21.14 4.22 21.14ZM24.40 16.85L24.40 16.85Q24.40 16.36 24.50 15.73Q24.61 15.09 24.77 14.43Q24.94 13.76 25.10 13.13Q25.27 12.49 25.38 12L25.38 12Q25.52 11.39 25.36 11.06Q25.20 10.73 24.80 10.73L24.80 10.73Q24.61 10.73 24.06 11.06Q23.51 11.39 22.86 12.20Q22.22 13.01 21.60 14.38Q20.98 15.75 20.63 17.86L20.63 17.86Q20.18 18.09 19.78 18.16L19.78 18.16Q19.57 18.21 19.41 18.23L19.41 18.23Q18.94 18.26 18.80 18.08Q18.66 17.91 18.84 17.23L18.84 17.23Q18.94 16.90 19.18 16.17Q19.43 15.45 19.66 14.59Q19.90 13.73 20.07 12.88Q20.25 12.02 20.25 11.39L20.25 11.39Q20.25 10.95 20.10 10.78Q19.95 10.62 19.66 10.62L19.66 10.62Q19.45 10.62 18.96 10.85Q18.47 11.09 17.86 11.77Q17.25 12.45 16.65 13.65Q16.05 14.86 15.63 16.78L15.63 16.78L15.63 16.73Q15.59 16.92 15.54 17.11L15.54 17.11Q15.49 17.27 15.47 17.46Q15.45 17.65 15.40 17.81L15.40 17.81L14.23 18.33Q14.11 18.38 13.93 18.40Q13.76 18.42 13.61 18.34Q13.45 18.26 13.38 18Q13.31 17.74 13.43 17.23L13.43 17.23L14.91 11.11Q14.98 10.80 15.02 10.52L15.02 10.52Q15.07 10.27 15.08 10.02Q15.09 9.77 15.05 9.61L15.05 9.61Q15.45 9.42 15.75 9.33Q16.05 9.23 16.24 9.19L16.24 9.19Q16.48 9.12 16.64 9.12L16.64 9.12Q17.39 9.12 17.13 10.41L17.13 10.41Q17.04 10.78 16.85 11.51L16.85 11.51Q17.30 10.95 17.80 10.44Q18.30 9.94 18.82 9.54Q19.34 9.14 19.86 8.91Q20.39 8.67 20.91 8.67L20.91 8.67Q21.30 8.67 21.57 8.91Q21.84 9.14 22.00 9.53Q22.15 9.91 22.17 10.44Q22.20 10.97 22.13 11.53L22.13 11.53Q22.50 11.04 22.96 10.54Q23.41 10.03 23.92 9.63Q24.42 9.23 24.96 8.98Q25.50 8.72 26.04 8.72L26.04 8.72Q26.67 8.72 27.01 9.09Q27.35 9.47 27.48 10.05Q27.61 10.64 27.55 11.32Q27.49 12 27.35 12.63L27.35 12.63L26.55 15.80Q26.30 16.97 27.05 16.97L27.05 16.97Q27.63 16.97 28.34 16.41Q29.04 15.84 29.71 15.07Q30.38 14.30 30.96 13.48Q31.55 12.66 31.95 12.16L31.95 12.16Q32.09 12 32.24 11.98Q32.39 11.95 32.50 12.04Q32.60 12.12 32.61 12.30Q32.63 12.49 32.48 12.77L32.48 12.77Q32.02 13.59 31.34 14.59Q30.66 15.59 29.85 16.45Q29.04 17.32 28.13 17.91Q27.21 18.49 26.23 18.49L26.23 18.49Q25.90 18.49 25.58 18.42Q25.27 18.35 25.00 18.16Q24.73 17.98 24.56 17.66Q24.40 17.34 24.40 16.85ZM42.73 13.27L42.73 13.27Q42.40 13.73 41.88 14.43Q41.37 15.12 40.82 15.81Q40.27 16.50 39.74 17.07Q39.21 17.65 38.86 17.88L38.86 17.88Q38.63 18.02 38.32 18.12Q38.02 18.21 37.70 18.23Q37.38 18.26 37.10 18.20Q36.82 18.14 36.61 18L36.61 18Q36.40 17.84 36.26 17.53L36.26 17.53Q36.14 17.27 36.04 16.85Q35.93 16.43 35.95 15.80L35.95 15.80Q35.39 16.73 34.71 17.24Q34.03 17.74 33.42 17.98L33.42 17.98Q32.72 18.23 32.02 18.28L32.02 18.28Q31.69 18.28 31.31 18.06Q30.94 17.84 30.68 17.36Q30.42 16.88 30.35 16.11Q30.28 15.35 30.54 14.30L30.54 14.30Q30.87 12.87 31.58 11.70Q32.30 10.52 33.14 9.69Q33.98 8.86 34.80 8.44Q35.63 8.02 36.16 8.06L36.16 8.06Q36.80 8.18 37.20 8.44L37.20 8.44Q37.52 8.67 37.63 9.13Q37.73 9.59 37.24 10.34L37.24 10.34Q37.57 10.27 37.79 10.24Q38.02 10.22 38.13 10.22L38.13 10.22Q38.27 10.22 38.32 10.24L38.32 10.24Q38.34 10.29 38.34 10.44Q38.34 10.59 38.27 10.99Q38.20 11.39 38.06 12.07Q37.92 12.75 37.69 13.83L37.69 13.83Q37.64 14.04 37.61 14.21Q37.57 14.39 37.54 14.57Q37.50 14.74 37.45 14.98Q37.41 15.21 37.34 15.56L37.34 15.56Q37.31 15.77 37.32 16.02Q37.34 16.27 37.41 16.48Q37.48 16.69 37.63 16.82Q37.78 16.95 38.06 16.95L38.06 16.95Q38.30 16.95 38.67 16.65Q39.05 16.36 39.47 15.90Q39.89 15.45 40.35 14.89Q40.80 14.34 41.20 13.83Q41.60 13.31 41.92 12.91Q42.23 12.52 42.38 12.33L42.38 12.33Q42.56 12.12 42.75 12.08Q42.94 12.05 43.03 12.19Q43.13 12.33 43.07 12.61Q43.01 12.89 42.73 13.27ZM35.86 14.30L35.86 14.30Q35.98 13.83 36.14 13.20Q36.30 12.56 36.42 11.98Q36.54 11.39 36.60 11.00Q36.66 10.62 36.56 10.64L36.56 10.64Q36.45 10.66 36.30 10.71L36.30 10.71Q36.19 10.76 36 10.78Q35.81 10.80 35.63 10.85L35.63 10.85Q35.81 10.48 35.85 10.23Q35.88 9.98 35.86 9.84L35.86 9.84Q35.84 9.68 35.77 9.59L35.77 9.59Q35.51 9.38 34.86 9.93Q34.22 10.48 33.38 11.95L33.38 11.95Q33.02 12.56 32.81 13.25Q32.60 13.95 32.52 14.55Q32.44 15.16 32.48 15.62Q32.53 16.08 32.67 16.22L32.67 16.22Q32.93 16.48 33.26 16.46Q33.59 16.45 33.93 16.28Q34.27 16.10 34.61 15.82Q34.95 15.54 35.21 15.23Q35.48 14.93 35.66 14.67Q35.84 14.41 35.86 14.30ZM40.27 17.81L40.27 17.81Q40.10 18.07 39.90 18.15Q39.70 18.23 39.55 18.18Q39.40 18.12 39.35 17.93Q39.30 17.74 39.45 17.46L39.45 17.46Q39.52 17.32 39.76 16.83Q40.01 16.34 40.35 15.64Q40.69 14.95 41.09 14.14Q41.48 13.34 41.85 12.61Q42.21 11.88 42.52 11.31Q42.82 10.73 42.96 10.48L42.96 10.48Q42.70 10.24 42.61 10.14Q42.52 10.03 42.47 9.68L42.47 9.68Q42.42 9.38 42.61 8.88Q42.80 8.39 43.10 7.93Q43.41 7.48 43.78 7.15Q44.16 6.82 44.51 6.82L44.51 6.82Q45.16 6.82 45.43 7.24Q45.70 7.66 45.75 8.11L45.75 8.11Q45.80 8.41 45.70 8.88Q45.61 9.35 45.35 9.73L45.35 9.73Q45.42 9.77 45.54 9.83Q45.66 9.89 45.91 9.89L45.91 9.89Q46.29 9.89 46.44 9.84Q46.59 9.80 46.92 9.80L46.92 9.80Q47.32 9.80 47.58 10.00Q47.84 10.20 48 10.49Q48.16 10.78 48.25 11.12Q48.33 11.46 48.35 11.74L48.35 11.74Q48.42 12.33 48.05 12.96Q47.67 13.59 47.13 14.34L47.13 14.34Q46.80 14.81 46.48 15.40Q46.15 15.98 46.20 16.45L46.20 16.45Q46.24 16.76 46.36 16.95Q46.48 17.13 47.02 17.13L47.02 17.13Q47.41 17.13 47.89 16.84Q48.38 16.55 48.88 16.09Q49.38 15.63 49.88 15.08Q50.37 14.53 50.79 14.00Q51.21 13.48 51.50 13.05Q51.80 12.63 51.94 12.45L51.94 12.45Q52.05 12.26 52.24 12.19Q52.43 12.12 52.57 12.19Q52.71 12.26 52.75 12.47Q52.78 12.68 52.57 13.03L52.57 13.03Q52.43 13.27 52.09 13.78Q51.75 14.30 51.27 14.93Q50.79 15.56 50.20 16.23Q49.62 16.90 48.97 17.45Q48.33 18 47.68 18.35Q47.04 18.70 46.45 18.70L46.45 18.70Q45.84 18.70 45.45 18.47Q45.05 18.23 44.80 17.89Q44.55 17.55 44.45 17.14Q44.34 16.73 44.37 16.38L44.37 16.38Q44.39 16.10 44.52 15.79Q44.65 15.47 44.82 15.13Q45 14.79 45.20 14.45Q45.40 14.11 45.56 13.78L45.56 13.78Q45.96 13.10 46.21 12.62Q46.45 12.14 46.45 11.81L46.45 11.81Q46.45 11.60 46.36 11.44Q46.27 11.27 46.05 11.27L46.05 11.27Q45.91 11.27 45.86 11.29Q45.80 11.30 45.74 11.30Q45.68 11.30 45.57 11.31Q45.47 11.32 45.26 11.32L45.26 11.32Q44.95 11.32 44.74 11.23Q44.53 11.13 44.34 11.09L44.34 11.09Q44.25 11.25 43.92 11.79Q43.59 12.33 43.16 13.05Q42.73 13.78 42.25 14.58Q41.77 15.38 41.34 16.07Q40.92 16.76 40.63 17.24Q40.34 17.72 40.27 17.81ZM63.73 12L63.73 12Q63.28 11.53 63.01 10.84Q62.74 10.15 62.60 9.47L62.60 9.47Q62.44 8.70 62.37 7.83L62.37 7.83Q62.25 6.14 62.74 4.76Q63.23 3.38 64.08 2.39Q64.92 1.41 65.96 0.87Q67.01 0.33 67.99 0.33L67.99 0.33Q68.44 0.33 68.71 0.54Q68.98 0.75 69.12 1.05Q69.26 1.36 69.29 1.69Q69.33 2.02 69.33 2.23L69.33 2.23Q69.33 2.98 69.29 3.70Q69.26 4.43 69.18 5.25Q69.09 6.07 68.93 7.01Q68.77 7.95 68.51 9.09L68.51 9.09Q68.37 9.73 68.11 10.71Q67.85 11.70 67.50 12.89L67.50 12.89Q68.55 12.91 69.20 12.97Q69.84 13.03 70.03 13.05L70.03 13.05Q70.20 13.08 70.28 13.22Q70.36 13.36 70.17 13.66L70.17 13.66Q69.98 13.95 69.64 13.99Q69.30 14.04 68.98 14.04L68.98 14.04Q68.79 14.04 68.29 14.04Q67.78 14.04 67.10 14.09L67.10 14.09Q66.61 15.54 65.99 17.00Q65.37 18.47 64.62 19.65Q63.87 20.84 62.98 21.57Q62.09 22.31 61.08 22.31L61.08 22.31Q59.63 22.31 58.63 21.76Q57.63 21.21 57.01 20.47Q56.39 19.73 56.11 19.00Q55.83 18.26 55.83 17.86L55.83 17.86Q55.83 17.16 56.20 16.43Q56.58 15.70 57.39 15.06Q58.20 14.41 59.48 13.92Q60.77 13.43 62.58 13.17L62.58 13.17Q63.33 13.08 64.01 13.02Q64.69 12.96 65.30 12.91L65.30 12.91Q65.77 11.16 66.25 9.33Q66.73 7.50 67.08 5.95L67.08 5.95Q67.22 5.32 67.36 4.58Q67.50 3.84 67.58 3.19Q67.66 2.53 67.68 2.09Q67.69 1.64 67.57 1.59L67.57 1.59Q67.50 1.57 67.22 1.77Q66.94 1.97 66.56 2.34Q66.19 2.72 65.82 3.25Q65.46 3.77 65.23 4.38L65.23 4.38Q64.80 5.58 64.57 6.73L64.57 6.73Q64.38 7.71 64.34 8.81Q64.29 9.91 64.69 10.80L64.69 10.80Q64.64 11.13 64.55 11.34L64.55 11.34Q64.48 11.46 64.43 11.55L64.43 11.55Q64.36 11.63 64.27 11.72L64.27 11.72Q64.17 11.79 64.04 11.87Q63.91 11.95 63.73 12ZM63.45 18.54L63.45 18.54Q63.70 18 64.08 16.88Q64.45 15.75 64.88 14.27L64.88 14.27Q63.73 14.41 62.55 14.66Q61.38 14.91 60.43 15.32Q59.48 15.73 58.89 16.31Q58.29 16.90 58.29 17.70L58.29 17.70Q58.29 18.54 58.63 19.17Q58.97 19.80 59.45 20.23Q59.93 20.65 60.43 20.87Q60.94 21.09 61.29 21.09L61.29 21.09Q61.64 21.09 61.96 20.82Q62.27 20.55 62.54 20.17Q62.81 19.78 63.04 19.34Q63.26 18.89 63.45 18.54ZM75.89 4.50L75.89 4.50Q75.54 5.91 75.11 7.18Q74.67 8.46 74.21 9.57Q73.76 10.69 73.30 11.60Q72.84 12.52 72.49 13.20L72.49 13.20Q72.26 14.88 72.49 15.91Q72.73 16.95 73.41 16.95L73.41 16.95Q73.97 16.95 74.51 16.43Q75.05 15.91 75.47 15.16Q75.89 14.41 76.18 13.56Q76.48 12.70 76.55 12.02L76.55 12.02Q76.10 11.91 75.80 11.61Q75.49 11.32 75.49 10.83L75.49 10.83Q75.49 10.50 75.68 10.21Q75.87 9.91 76.13 9.70Q76.38 9.49 76.69 9.38Q76.99 9.26 77.25 9.26L77.25 9.26Q77.65 9.26 77.93 9.76Q78.21 10.27 78.30 11.04L78.30 11.04Q79.24 11.02 80.27 10.76Q81.30 10.50 82.22 10.10L82.22 10.10Q82.48 9.98 82.64 10.03Q82.80 10.08 82.86 10.22Q82.92 10.36 82.85 10.54Q82.78 10.71 82.57 10.80L82.57 10.80Q82.03 11.11 81.46 11.36Q80.88 11.60 80.32 11.77Q79.76 11.93 79.24 12.02Q78.73 12.12 78.30 12.12L78.30 12.12Q78.21 13.05 77.72 14.14Q77.23 15.23 76.52 16.16Q75.82 17.09 74.96 17.70Q74.11 18.30 73.29 18.30L73.29 18.30Q73.03 18.30 72.61 18.23Q72.19 18.16 71.79 17.74Q71.39 17.32 71.11 16.39Q70.83 15.47 70.88 13.76L70.88 13.76Q70.90 12.61 71.13 11.32Q71.37 10.03 71.70 8.74Q72.02 7.45 72.43 6.25Q72.84 5.04 73.22 4.07Q73.59 3.09 73.91 2.44Q74.23 1.78 74.39 1.59L74.39 1.59Q74.60 1.34 74.88 1.21Q75.16 1.08 75.43 1.02Q75.70 0.96 75.94 0.98Q76.17 1.01 76.27 1.05L76.27 1.05Q76.41 1.15 76.35 2.09Q76.29 3.02 75.89 4.50ZM79.59 17.81L79.59 17.81Q79.43 18.07 79.23 18.15Q79.03 18.23 78.88 18.18Q78.73 18.12 78.68 17.93Q78.63 17.74 78.77 17.46L78.77 17.46Q78.84 17.32 79.09 16.83Q79.34 16.34 79.68 15.64Q80.02 14.95 80.41 14.14Q80.81 13.34 81.18 12.61Q81.54 11.88 81.84 11.31Q82.15 10.73 82.29 10.48L82.29 10.48Q82.03 10.24 81.94 10.14Q81.84 10.03 81.80 9.68L81.80 9.68Q81.75 9.38 81.94 8.88Q82.13 8.39 82.43 7.93Q82.73 7.48 83.11 7.15Q83.48 6.82 83.84 6.82L83.84 6.82Q84.49 6.82 84.76 7.24Q85.03 7.66 85.08 8.11L85.08 8.11Q85.13 8.41 85.03 8.88Q84.94 9.35 84.68 9.73L84.68 9.73Q84.75 9.77 84.87 9.83Q84.98 9.89 85.24 9.89L85.24 9.89Q85.62 9.89 85.77 9.84Q85.92 9.80 86.25 9.80L86.25 9.80Q86.65 9.80 86.91 10.00Q87.16 10.20 87.33 10.49Q87.49 10.78 87.57 11.12Q87.66 11.46 87.68 11.74L87.68 11.74Q87.75 12.33 87.38 12.96Q87 13.59 86.46 14.34L86.46 14.34Q86.13 14.81 85.80 15.40Q85.48 15.98 85.52 16.45L85.52 16.45Q85.57 16.76 85.69 16.95Q85.80 17.13 86.34 17.13L86.34 17.13Q86.74 17.13 87.22 16.84Q87.70 16.55 88.21 16.09Q88.71 15.63 89.20 15.08Q89.70 14.53 90.12 14.00Q90.54 13.48 90.83 13.05Q91.13 12.63 91.27 12.45L91.27 12.45Q91.38 12.26 91.57 12.19Q91.76 12.12 91.90 12.19Q92.04 12.26 92.07 12.47Q92.11 12.68 91.90 13.03L91.90 13.03Q91.76 13.27 91.42 13.78Q91.08 14.30 90.60 14.93Q90.12 15.56 89.53 16.23Q88.95 16.90 88.30 17.45Q87.66 18 87.01 18.35Q86.37 18.70 85.78 18.70L85.78 18.70Q85.17 18.70 84.77 18.47Q84.38 18.23 84.13 17.89Q83.88 17.55 83.78 17.14Q83.67 16.73 83.70 16.38L83.70 16.38Q83.72 16.10 83.85 15.79Q83.98 15.47 84.15 15.13Q84.33 14.79 84.53 14.45Q84.73 14.11 84.89 13.78L84.89 13.78Q85.29 13.10 85.54 12.62Q85.78 12.14 85.78 11.81L85.78 11.81Q85.78 11.60 85.69 11.44Q85.59 11.27 85.38 11.27L85.38 11.27Q85.24 11.27 85.18 11.29Q85.13 11.30 85.07 11.30Q85.01 11.30 84.90 11.31Q84.80 11.32 84.59 11.32L84.59 11.32Q84.28 11.32 84.07 11.23Q83.86 11.13 83.67 11.09L83.67 11.09Q83.58 11.25 83.25 11.79Q82.92 12.33 82.49 13.05Q82.05 13.78 81.57 14.58Q81.09 15.38 80.67 16.07Q80.25 16.76 79.96 17.24Q79.66 17.72 79.59 17.81ZM102.26 13.27L102.26 13.27Q101.93 13.73 101.41 14.43Q100.90 15.12 100.35 15.81Q99.80 16.50 99.27 17.07Q98.74 17.65 98.39 17.88L98.39 17.88Q98.16 18.02 97.85 18.12Q97.55 18.21 97.23 18.23Q96.91 18.26 96.63 18.20Q96.35 18.14 96.14 18L96.14 18Q95.93 17.84 95.79 17.53L95.79 17.53Q95.67 17.27 95.57 16.85Q95.46 16.43 95.48 15.80L95.48 15.80Q94.92 16.73 94.24 17.24Q93.56 17.74 92.95 17.98L92.95 17.98Q92.25 18.23 91.55 18.28L91.55 18.28Q91.22 18.28 90.84 18.06Q90.47 17.84 90.21 17.36Q89.95 16.88 89.88 16.11Q89.81 15.35 90.07 14.30L90.07 14.30Q90.40 12.87 91.11 11.70Q91.83 10.52 92.67 9.69Q93.52 8.86 94.34 8.44Q95.16 8.02 95.70 8.06L95.70 8.06Q96.33 8.18 96.73 8.44L96.73 8.44Q97.05 8.67 97.16 9.13Q97.27 9.59 96.77 10.34L96.77 10.34Q97.10 10.27 97.32 10.24Q97.55 10.22 97.66 10.22L97.66 10.22Q97.80 10.22 97.85 10.24L97.85 10.24Q97.88 10.29 97.88 10.44Q97.88 10.59 97.80 10.99Q97.73 11.39 97.59 12.07Q97.45 12.75 97.22 13.83L97.22 13.83Q97.17 14.04 97.14 14.21Q97.10 14.39 97.07 14.57Q97.03 14.74 96.98 14.98Q96.94 15.21 96.87 15.56L96.87 15.56Q96.84 15.77 96.86 16.02Q96.87 16.27 96.94 16.48Q97.01 16.69 97.16 16.82Q97.31 16.95 97.59 16.95L97.59 16.95Q97.83 16.95 98.20 16.65Q98.58 16.36 99 15.90Q99.42 15.45 99.88 14.89Q100.34 14.34 100.73 13.83Q101.13 13.31 101.45 12.91Q101.77 12.52 101.91 12.33L101.91 12.33Q102.09 12.12 102.28 12.08Q102.47 12.05 102.56 12.19Q102.66 12.33 102.60 12.61Q102.54 12.89 102.26 13.27ZM95.39 14.30L95.39 14.30Q95.51 13.83 95.67 13.20Q95.84 12.56 95.95 11.98Q96.07 11.39 96.13 11.00Q96.19 10.62 96.09 10.64L96.09 10.64Q95.98 10.66 95.84 10.71L95.84 10.71Q95.72 10.76 95.53 10.78Q95.34 10.80 95.16 10.85L95.16 10.85Q95.34 10.48 95.38 10.23Q95.41 9.98 95.39 9.84L95.39 9.84Q95.37 9.68 95.30 9.59L95.30 9.59Q95.04 9.38 94.39 9.93Q93.75 10.48 92.91 11.95L92.91 11.95Q92.55 12.56 92.34 13.25Q92.13 13.95 92.05 14.55Q91.97 15.16 92.02 15.62Q92.06 16.08 92.20 16.22L92.20 16.22Q92.46 16.48 92.79 16.46Q93.12 16.45 93.46 16.28Q93.80 16.10 94.14 15.82Q94.48 15.54 94.75 15.23Q95.02 14.93 95.19 14.67Q95.37 14.41 95.39 14.30ZM112.78 12.77L112.78 12.77Q112.95 12.59 113.12 12.57Q113.30 12.56 113.40 12.67Q113.51 12.77 113.50 12.98Q113.48 13.20 113.30 13.45L113.30 13.45Q112.85 14.06 112.27 14.71Q111.68 15.35 111.01 15.96Q110.34 16.57 109.66 17.11Q108.98 17.65 108.35 18L108.35 18Q107.65 18.40 107.17 18.40Q106.69 18.40 106.22 17.79L106.22 17.79Q105.80 17.25 105.81 16.63Q105.82 16.01 106.08 15.07L106.08 15.07Q106.24 14.48 106.54 13.68Q106.83 12.87 107.00 12.12Q107.18 11.37 107.11 10.84Q107.04 10.31 106.50 10.31L106.50 10.31Q106.13 10.31 105.69 10.57Q105.26 10.83 104.82 11.24Q104.39 11.65 103.99 12.16Q103.59 12.68 103.29 13.17L103.29 13.17Q103.10 14.09 102.91 14.98L102.91 14.98Q102.75 15.73 102.57 16.61Q102.40 17.48 102.23 18.16L102.23 18.16Q102.09 18.28 101.93 18.33Q101.77 18.38 101.63 18.38L101.63 18.38Q101.46 18.38 101.30 18.35L101.30 18.35Q101.11 18.30 100.95 18.21L100.95 18.21Q100.80 18.12 100.66 17.96Q100.52 17.81 100.45 17.55L100.45 17.55Q101.51 13.22 102.12 10.59Q102.73 7.97 103.05 6.59L103.05 6.59Q103.43 4.95 103.57 4.31L103.57 4.31Q103.64 3.87 103.69 3.45L103.69 3.45Q103.73 3.07 103.73 2.67Q103.73 2.27 103.66 1.95L103.66 1.95Q103.85 1.83 104.07 1.76Q104.30 1.69 104.51 1.64L104.51 1.64Q104.77 1.57 105.02 1.52L105.02 1.52Q105.28 1.48 105.49 1.48L105.49 1.48Q105.68 1.48 105.84 1.51Q106.01 1.55 106.05 1.66L106.05 1.66Q106.20 1.78 106.18 2.13Q106.17 2.48 106.13 2.86L106.13 2.86Q106.03 3.30 105.91 3.82L105.91 3.82Q105.42 5.72 104.81 7.51Q104.20 9.30 103.69 11.34L103.69 11.34Q103.99 10.88 104.41 10.38Q104.84 9.89 105.34 9.48Q105.84 9.07 106.41 8.80Q106.97 8.53 107.60 8.53L107.60 8.53Q107.93 8.53 108.22 8.64Q108.52 8.74 108.74 8.99Q108.96 9.23 109.08 9.64Q109.20 10.05 109.17 10.66L109.17 10.66Q109.17 11.04 109.09 11.44Q109.01 11.84 108.87 12.32Q108.73 12.80 108.50 13.38Q108.28 13.97 107.98 14.74L107.98 14.74Q107.77 15.28 107.65 15.66Q107.53 16.03 107.70 16.31L107.70 16.31Q107.91 16.69 108.53 16.49Q109.15 16.29 110.39 15.28L110.39 15.28Q110.67 15.05 111.02 14.70Q111.38 14.34 111.70 13.98Q112.03 13.62 112.31 13.29Q112.59 12.96 112.78 12.77ZM117.02 4.13L117.02 4.13Q116.95 4.38 116.75 4.63Q116.55 4.88 116.31 5.03Q116.06 5.18 115.80 5.23Q115.55 5.27 115.38 5.13L115.38 5.13Q114.89 4.76 114.87 4.32Q114.84 3.89 115.08 3.50Q115.31 3.12 115.66 2.85Q116.02 2.58 116.27 2.53L116.27 2.53Q116.53 2.48 116.71 2.64Q116.88 2.79 116.98 3.04Q117.07 3.28 117.08 3.59Q117.09 3.89 117.02 4.13ZM113.79 9.12L113.79 9.12Q113.91 8.98 114.23 8.88Q114.56 8.79 114.91 8.73Q115.27 8.67 115.56 8.66Q115.85 8.65 115.90 8.67L115.90 8.67Q115.92 8.70 115.78 9.16Q115.64 9.63 115.43 10.27Q115.22 10.90 114.98 11.57Q114.75 12.23 114.63 12.66L114.63 12.66Q114.52 13.08 114.35 13.61Q114.19 14.13 114.06 14.64Q113.93 15.14 113.88 15.59Q113.84 16.03 113.95 16.27L113.95 16.27Q114.07 16.55 114.21 16.65Q114.35 16.76 114.52 16.76L114.52 16.76Q114.98 16.76 115.70 16.24Q116.41 15.73 117.15 15.01Q117.89 14.30 118.52 13.56Q119.16 12.82 119.46 12.38L119.46 12.38Q119.65 12.14 119.85 12.07Q120.05 12 120.18 12.09Q120.30 12.19 120.32 12.40Q120.33 12.61 120.16 12.89L120.16 12.89Q119.79 13.55 119.06 14.45Q118.34 15.35 117.52 16.18Q116.70 17.02 115.91 17.60Q115.13 18.19 114.63 18.21L114.63 18.21Q114.23 18.23 113.85 18.08Q113.46 17.93 113.14 17.66Q112.83 17.39 112.62 17.03Q112.41 16.66 112.38 16.27L112.38 16.27Q112.31 15.68 112.38 14.66Q112.45 13.64 112.64 12.57Q112.83 11.51 113.12 10.55Q113.41 9.59 113.79 9.12ZM129.38 16.85L129.38 16.85Q129.38 16.36 129.48 15.73Q129.59 15.09 129.75 14.43Q129.91 13.76 130.08 13.13Q130.24 12.49 130.36 12L130.36 12Q130.50 11.39 130.34 11.06Q130.17 10.73 129.77 10.73L129.77 10.73Q129.59 10.73 129.04 11.06Q128.48 11.39 127.84 12.20Q127.20 13.01 126.57 14.38Q125.95 15.75 125.60 17.86L125.60 17.86Q125.16 18.09 124.76 18.16L124.76 18.16Q124.55 18.21 124.38 18.23L124.38 18.23Q123.91 18.26 123.77 18.08Q123.63 17.91 123.82 17.23L123.82 17.23Q123.91 16.90 124.16 16.17Q124.41 15.45 124.64 14.59Q124.88 13.73 125.05 12.88Q125.23 12.02 125.23 11.39L125.23 11.39Q125.23 10.95 125.07 10.78Q124.92 10.62 124.64 10.62L124.64 10.62Q124.43 10.62 123.94 10.85Q123.45 11.09 122.84 11.77Q122.23 12.45 121.63 13.65Q121.03 14.86 120.61 16.78L120.61 16.78L120.61 16.73Q120.56 16.92 120.52 17.11L120.52 17.11Q120.47 17.27 120.45 17.46Q120.42 17.65 120.38 17.81L120.38 17.81L119.20 18.33Q119.09 18.38 118.91 18.40Q118.73 18.42 118.58 18.34Q118.43 18.26 118.36 18Q118.29 17.74 118.41 17.23L118.41 17.23L119.88 11.11Q119.95 10.80 120 10.52L120 10.52Q120.05 10.27 120.06 10.02Q120.07 9.77 120.02 9.61L120.02 9.61Q120.42 9.42 120.73 9.33Q121.03 9.23 121.22 9.19L121.22 9.19Q121.45 9.12 121.62 9.12L121.62 9.12Q122.37 9.12 122.11 10.41L122.11 10.41Q122.02 10.78 121.83 11.51L121.83 11.51Q122.27 10.95 122.78 10.44Q123.28 9.94 123.80 9.54Q124.31 9.14 124.84 8.91Q125.37 8.67 125.88 8.67L125.88 8.67Q126.28 8.67 126.55 8.91Q126.82 9.14 126.97 9.53Q127.13 9.91 127.15 10.44Q127.17 10.97 127.10 11.53L127.10 11.53Q127.48 11.04 127.93 10.54Q128.39 10.03 128.89 9.63Q129.40 9.23 129.94 8.98Q130.48 8.72 131.02 8.72L131.02 8.72Q131.65 8.72 131.99 9.09Q132.33 9.47 132.46 10.05Q132.59 10.64 132.53 11.32Q132.47 12 132.33 12.63L132.33 12.63L131.53 15.80Q131.27 16.97 132.02 16.97L132.02 16.97Q132.61 16.97 133.31 16.41Q134.02 15.84 134.68 15.07Q135.35 14.30 135.94 13.48Q136.52 12.66 136.92 12.16L136.92 12.16Q137.06 12 137.21 11.98Q137.37 11.95 137.47 12.04Q137.58 12.12 137.59 12.30Q137.60 12.49 137.46 12.77L137.46 12.77Q136.99 13.59 136.31 14.59Q135.63 15.59 134.82 16.45Q134.02 17.32 133.10 17.91Q132.19 18.49 131.20 18.49L131.20 18.49Q130.88 18.49 130.56 18.42Q130.24 18.35 129.97 18.16Q129.70 17.98 129.54 17.66Q129.38 17.34 129.38 16.85Z" transform="translate(51, 3.25)"></path></svg>